<svg width="50" height="50" viewBox="0 0 70 70" fill="none" xmlns="http://www.w3.org/2000/svg">
  <circle cx="35" cy="35" r="30" fill="#0DAEF1"/>
  <g transform="translate(10, 20)">
  <path d="M49.9312 1.6466C49.9039 1.5423 49.8694 1.44001 49.828 1.34048C49.7998 1.2757 49.7686 1.21092 49.7352 1.14928C49.7018 1.08659 49.6643 1.02704 49.6257 0.96853C49.4337 0.68284 49.1772 0.44649 48.8771 0.278616C48.577 0.110742 48.2416 0.0160635 47.8982 0.00224739C47.5547 -0.0115687 47.2129 0.0558658 46.9003 0.19909C46.5877 0.342315 46.3132 0.557304 46.0989 0.826648C45.8846 1.09599 45.7367 1.41212 45.667 1.74944C45.5973 2.08675 45.6079 2.43577 45.6978 2.76823C45.7878 3.10069 45.9546 3.40725 46.1848 3.66309C46.4149 3.91892 46.702 4.11684 47.0226 4.24081C46.6348 6.2374 44.3768 8.44504 42.1438 9.71237C41.7996 9.9069 41.4388 10.0705 41.0658 10.2013C41.5271 8.82738 41.777 7.39106 41.807 5.94173C42.2941 5.7699 42.7049 5.43104 42.9668 4.98503C43.2287 4.53901 43.3249 4.01457 43.2383 3.50438C43.1517 2.99419 42.8879 2.5311 42.4936 2.19697C42.0993 1.86284 41.5998 1.67918 41.0834 1.67844C40.567 1.6777 40.067 1.85994 39.6717 2.19293C39.2764 2.52593 39.0113 2.98826 38.9233 3.4982C38.8352 4.00814 38.9299 4.53286 39.1905 4.97962C39.4511 5.42638 39.861 5.76642 40.3476 5.93964C40.3167 7.5145 39.9925 9.06971 39.3916 10.5252C38.4502 12.805 36.8677 14.7086 34.8943 15.7753L34.7754 15.8401C33.8163 16.3593 33.3232 16.6257 32.4538 16.701C32.4913 16.3541 32.5654 15.9498 32.6925 15.3135C32.729 15.1307 32.803 14.8109 32.8906 14.4411C33.267 12.8363 33.5151 11.6379 33.6464 10.7342C34.1284 10.5513 34.5305 10.2039 34.782 9.75302C35.0335 9.30219 35.1181 8.77689 35.0211 8.26963C34.9241 7.76237 34.6516 7.30569 34.2516 6.98003C33.8516 6.65436 33.3497 6.48058 32.8345 6.48931C32.3192 6.49804 31.8235 6.68871 31.4347 7.02774C31.0459 7.36677 30.7889 7.83242 30.7091 8.34267C30.6292 8.85292 30.7315 9.37506 30.9981 9.81712C31.2646 10.2592 31.6782 10.5928 32.1661 10.7593C31.9711 11.9639 31.624 13.4454 31.4697 14.1057C31.3759 14.5048 31.3019 14.8203 31.2612 15.0262C31.1339 15.6032 31.0403 16.1872 30.9808 16.7752C29.9268 16.9026 29.1074 17.2746 28.4892 17.9004C27.3383 19.0664 27.1788 20.8363 27.1725 22.6552C27.1705 22.9864 27.1736 23.3187 27.1778 23.6499C27.1809 23.9246 27.183 24.1984 27.183 24.469V28.6941C27.183 28.7245 27.1809 28.7549 27.1767 28.785C27.1738 28.815 27.1682 28.8448 27.16 28.8738C27.1216 29.0362 27.0233 29.178 26.8848 29.2708C26.8838 29.2719 26.8817 29.2729 26.8807 29.274C26.8796 29.274 26.8796 29.275 26.8786 29.275C26.8671 29.2823 26.8567 29.2896 26.8452 29.297C26.8378 29.3015 26.8301 29.3057 26.8223 29.3095C26.7562 29.349 26.6868 29.3825 26.6148 29.4098C26.5738 29.4252 26.5321 29.4385 26.4897 29.4495C26.4428 29.4631 26.3948 29.4735 26.3448 29.4829C26.2948 29.4934 26.2426 29.5007 26.1884 29.507C26.1828 29.5071 26.1772 29.5078 26.1718 29.509C25.9917 29.5277 25.8107 29.5367 25.6297 29.5362V29.5352H25.6265V27.3777C25.6264 27.3519 25.6317 27.3263 25.6421 27.3027C25.6524 27.279 25.6676 27.2579 25.6867 27.2405C25.7058 27.2232 25.7283 27.21 25.7528 27.202C25.7773 27.1939 25.8032 27.1912 25.8288 27.1938C25.9706 27.2074 26.129 27.2251 26.3125 27.245C26.3313 27.2472 26.3504 27.2457 26.3687 27.2405C26.3869 27.2352 26.4039 27.2264 26.4188 27.2146C26.4336 27.2027 26.4459 27.1881 26.4551 27.1714C26.4642 27.1547 26.47 27.1364 26.472 27.1175L26.5252 26.6359L26.5794 26.1532C26.5802 26.1484 26.5806 26.1435 26.5804 26.1386V26.1375C26.5802 26.1284 26.5795 26.1194 26.5783 26.1103C26.5744 26.0934 26.5677 26.0771 26.5585 26.0623C26.554 26.0548 26.5487 26.0478 26.5429 26.0414C26.5374 26.0347 26.5311 26.0287 26.5241 26.0236C26.5025 26.0074 26.477 25.9973 26.4501 25.9944C25.7589 25.9233 25.3701 25.8857 25 25.8847C24.6299 25.8857 24.2411 25.9233 23.5499 25.9944C23.5141 25.9975 23.4808 26.0143 23.4571 26.0414C23.4512 26.0478 23.446 26.0548 23.4415 26.0623C23.4323 26.0771 23.4256 26.0934 23.4217 26.1103C23.4204 26.1197 23.4197 26.1291 23.4196 26.1386C23.4194 26.1435 23.4198 26.1484 23.4206 26.1532L23.4748 26.6359L23.528 27.1175C23.53 27.1364 23.5358 27.1547 23.5449 27.1714C23.554 27.1881 23.5664 27.2027 23.5812 27.2146C23.5961 27.2265 23.6131 27.2352 23.6313 27.2405C23.6496 27.2457 23.6687 27.2472 23.6875 27.245C23.871 27.2251 24.0294 27.2074 24.1712 27.1938C24.1968 27.1912 24.2227 27.1939 24.2472 27.202C24.2717 27.21 24.2942 27.2232 24.3133 27.2405C24.3323 27.2579 24.3476 27.279 24.3579 27.3027C24.3683 27.3263 24.3736 27.3519 24.3735 27.3777V29.5352H24.3703V29.5362C24.1893 29.5367 24.0083 29.5277 23.8282 29.509C23.8226 29.5089 23.817 29.5082 23.8116 29.507C23.7573 29.5007 23.7052 29.4934 23.6552 29.4829C23.6051 29.4735 23.5572 29.4631 23.5103 29.4495C23.4679 29.4385 23.4262 29.4252 23.3852 29.4098C23.313 29.383 23.2436 29.3494 23.1777 29.3095C23.1699 29.3057 23.1622 29.3015 23.1548 29.297C23.1433 29.2896 23.1329 29.2823 23.1214 29.275C23.1193 29.274 23.1173 29.2719 23.1152 29.2708C22.9767 29.178 22.8784 29.0362 22.84 28.8738C22.8318 28.8448 22.8262 28.815 22.8233 28.785C22.8191 28.7545 22.817 28.7238 22.817 28.6931V24.469C22.817 24.1984 22.8191 23.9246 22.8222 23.6499C22.8264 23.3187 22.8295 22.9864 22.8274 22.6552C22.8212 20.8363 22.6617 19.0664 21.5108 17.9004C20.8926 17.2746 20.0732 16.9026 19.0192 16.7752C18.9597 16.1872 18.8661 15.6032 18.7388 15.0262C18.6981 14.8203 18.6241 14.5059 18.5303 14.1068C18.376 13.4465 18.0289 11.9639 17.8339 10.7593C18.322 10.5928 18.7358 10.2591 19.0025 9.81685C19.2692 9.37463 19.3717 8.85227 19.2918 8.34179C19.2119 7.83131 18.9549 7.36544 18.5659 7.02625C18.177 6.68706 17.6811 6.4963 17.1656 6.48757C16.6501 6.47883 16.148 6.65269 15.7478 6.97852C15.3477 7.30434 15.0751 7.76124 14.978 8.26872C14.881 8.77621 14.9658 9.30173 15.2174 9.75274C15.469 10.2037 15.8714 10.5513 16.3536 10.7342C16.4849 11.6379 16.733 12.8363 17.1094 14.4411C17.1969 14.812 17.271 15.1307 17.3074 15.3135C17.4346 15.9498 17.5086 16.3541 17.5462 16.701C16.6767 16.6257 16.1836 16.3593 15.2245 15.8401L15.1057 15.7753C13.1323 14.7086 11.5498 12.805 10.6084 10.5252C10.0075 9.06971 9.68331 7.5145 9.65243 5.93964C10.1391 5.76642 10.5491 5.42633 10.8098 4.9795C11.0705 4.53266 11.1651 4.00785 11.0771 3.49781C10.989 2.98777 10.7239 2.52536 10.3285 2.19229C9.93319 1.85922 9.43308 1.67695 8.91661 1.67769C8.40013 1.67843 7.90054 1.86213 7.50614 2.19633C7.11174 2.53053 6.84793 2.9937 6.76132 3.50399C6.67472 4.01428 6.77091 4.53882 7.03288 4.98491C7.29486 5.43099 7.70575 5.7699 8.19294 5.94173C8.22296 7.39106 8.47289 8.82738 8.93415 10.2013C8.56115 10.0705 8.20043 9.9069 7.85622 9.71237C5.6232 8.44504 3.36516 6.2374 2.97735 4.24081C3.29812 4.11689 3.58526 3.91899 3.8155 3.66315C4.04575 3.4073 4.21264 3.1007 4.30264 2.76819C4.39265 2.43567 4.40324 2.08658 4.33357 1.7492C4.2639 1.41182 4.11591 1.09562 3.90161 0.826225C3.6873 0.556828 3.4127 0.341805 3.10004 0.198571C2.78738 0.0553362 2.44546 -0.0120824 2.10196 0.0017755C1.75846 0.0156334 1.42305 0.110378 1.12289 0.278336C0.822725 0.446294 0.566256 0.682741 0.37425 0.96853C0.335678 1.02704 0.298148 1.08659 0.264788 1.14928C0.231429 1.21092 0.200154 1.2757 0.172007 1.34048C0.13062 1.44002 0.096135 1.5423 0.0687993 1.6466C-0.0694026 2.18621 0.00221546 2.75829 0.269144 3.24696C0.536072 3.73563 0.978354 4.10435 1.5064 4.27842C1.89003 6.90398 4.6026 9.54625 7.1369 10.9849C7.377 11.1211 7.62406 11.2445 7.87706 11.3548C8.08035 11.4446 8.28781 11.5251 8.49839 11.5982C8.64121 11.6473 8.78508 11.6933 8.93102 11.734C9.16037 11.7999 9.39389 11.8563 9.62845 11.9023H9.62949C9.6566 11.9597 9.68579 12.0161 9.71393 12.0736C9.74208 12.13 9.77127 12.1854 9.80046 12.2418C10.9159 14.368 12.5109 16.0344 14.4135 17.0635L14.5313 17.1272C15.5998 17.7061 16.2973 18.0832 17.5576 18.1689C17.5545 18.2316 17.5514 18.2985 17.5483 18.3674C17.5389 18.5816 17.5285 18.8209 17.518 19.0946C17.4815 20.0109 17.444 21.3189 17.444 23.3834V24.1002C17.444 25.5451 18.8691 26.5126 20.0148 27.291C20.364 27.5281 20.6945 27.7528 20.951 27.9638C21.0176 28.1767 21.0715 28.3933 21.1125 28.6126C21.1571 28.8468 21.2142 29.0783 21.2835 29.3064C21.3342 29.4785 21.4181 29.6389 21.5306 29.7786C21.6234 29.8883 21.7161 29.9876 21.8089 30.0785C21.8392 30.1088 21.8704 30.138 21.9007 30.1662C22.0698 30.3242 22.2558 30.4629 22.4553 30.58C22.5064 30.6103 22.5574 30.6374 22.6096 30.6635C22.6808 30.6998 22.7538 30.7322 22.8285 30.7607C22.8535 30.7712 22.8785 30.7806 22.9035 30.7889C23.0779 30.8516 23.2576 30.8981 23.4404 30.9279C23.4634 30.932 23.4863 30.9362 23.5092 30.9394C23.5426 30.9446 23.5749 30.9498 23.6083 30.9529C23.6708 30.9613 23.7334 30.9676 23.797 30.9738C23.8804 30.9812 23.9648 30.9864 24.0492 30.9895C24.0722 30.9906 24.0951 30.9916 24.117 30.9926C24.2859 30.9989 24.4589 31 24.6372 31H24.8071L24.9447 30.9989H25.0552L25.1929 31C25.4316 31 25.6609 31.001 25.883 30.9926C25.9049 30.9916 25.9278 30.9906 25.9507 30.9895C26.0362 30.9864 26.1207 30.9801 26.203 30.9738C26.2666 30.9676 26.3292 30.9613 26.3917 30.9529C26.4251 30.9488 26.4584 30.9446 26.4908 30.9394C26.5137 30.9362 26.5366 30.932 26.5596 30.9279C26.7424 30.8981 26.9221 30.8516 27.0964 30.7889C27.1215 30.7806 27.1465 30.7712 27.1715 30.7607C27.2461 30.732 27.3191 30.6996 27.3904 30.6635C27.4426 30.6374 27.4936 30.6103 27.5447 30.58C27.7442 30.4629 27.9302 30.3242 28.0993 30.1662C28.1296 30.138 28.1608 30.1088 28.1911 30.0785C28.2849 29.9876 28.3766 29.8883 28.4694 29.7786C28.5819 29.6389 28.6658 29.4785 28.7165 29.3064C28.7858 29.0783 28.8429 28.8468 28.8874 28.6126C28.9285 28.3933 28.9824 28.1767 29.049 27.9638C29.3055 27.7528 29.636 27.5281 29.9852 27.291C31.1309 26.5126 32.556 25.5451 32.556 24.1002V23.3834C32.556 21.3189 32.5184 20.0109 32.482 19.0946C32.4715 18.8209 32.4611 18.5816 32.4517 18.3674C32.4486 18.2985 32.4455 18.2316 32.4423 18.1689C33.7027 18.0832 34.4001 17.7061 35.4697 17.1272L35.5865 17.0635C37.489 16.0344 39.0841 14.368 40.1995 12.2418C40.2287 12.1854 40.2579 12.13 40.2861 12.0736C40.3142 12.0161 40.3434 11.9597 40.3705 11.9023H40.3715C40.6061 11.8563 40.8386 11.8009 41.069 11.734C41.2149 11.6933 41.3588 11.6473 41.5016 11.5982C41.7122 11.5251 41.9196 11.4446 42.1229 11.3548C42.3757 11.2441 42.6228 11.1207 42.8631 10.9849C45.3974 9.54625 48.11 6.90398 48.4936 4.27842C49.0216 4.10436 49.4639 3.73564 49.7309 3.24697C49.9978 2.7583 50.0694 2.18621 49.9312 1.6466ZM2.18923 2.92542C2.0449 2.92542 1.90381 2.88253 1.7838 2.80217C1.6638 2.7218 1.57027 2.60758 1.51503 2.47395C1.4598 2.34031 1.44535 2.19326 1.47351 2.05139C1.50166 1.90952 1.57116 1.77921 1.67322 1.67692C1.77528 1.57464 1.90531 1.50499 2.04686 1.47677C2.18842 1.44855 2.33515 1.46303 2.46849 1.51839C2.60183 1.57374 2.7158 1.66748 2.79599 1.78775C2.87617 1.90802 2.91897 2.04942 2.91897 2.19407C2.91876 2.38797 2.84181 2.57387 2.705 2.71098C2.56819 2.84809 2.3827 2.92521 2.18923 2.92542ZM8.91956 4.60335C8.77523 4.60335 8.63414 4.56046 8.51413 4.4801C8.39413 4.39974 8.30059 4.28551 8.24536 4.15188C8.19013 4.01824 8.17568 3.87119 8.20383 3.72932C8.23199 3.58745 8.30149 3.45714 8.40355 3.35486C8.5056 3.25257 8.63563 3.18292 8.77719 3.1547C8.91875 3.12648 9.06547 3.14096 9.19882 3.19632C9.33216 3.25167 9.44613 3.34541 9.52632 3.46568C9.6065 3.58595 9.6493 3.72735 9.6493 3.872C9.64909 4.0659 9.57214 4.2518 9.43533 4.38891C9.29852 4.52602 9.11303 4.60314 8.91956 4.60335ZM17.1281 9.41461C16.9347 9.4144 16.7492 9.33728 16.6124 9.20017C16.4756 9.06306 16.3986 8.87716 16.3984 8.68326C16.3992 8.48953 16.4763 8.30397 16.613 8.16699C16.7497 8.03 16.9348 7.9527 17.1281 7.9519C17.3217 7.9519 17.5073 8.02896 17.6441 8.16611C17.781 8.30327 17.8579 8.48929 17.8579 8.68326C17.8579 8.87722 17.781 9.06325 17.6441 9.2004C17.5073 9.33756 17.3217 9.41461 17.1281 9.41461ZM19.528 18.3737C19.884 18.478 20.2088 18.669 20.4735 18.9295C20.829 19.2889 21.0458 19.7915 21.1761 20.3765C21.2001 20.4831 21.221 20.5918 21.2397 20.7036C21.2679 20.8707 21.2898 21.0431 21.3075 21.2207H21.3064C20.7835 21.2066 20.2868 20.9884 19.922 20.6127C19.8552 20.5445 19.7936 20.4715 19.7375 20.3943C19.7 20.3431 19.6645 20.2898 19.6322 20.2355C19.6155 20.2073 19.5999 20.1801 19.5853 20.1519C19.5551 20.0955 19.528 20.037 19.5029 19.9774C19.3977 19.7225 19.3456 19.4488 19.3499 19.173C19.3542 18.8972 19.4148 18.6251 19.528 18.3737ZM21.3638 23.6342C21.3607 23.9142 21.3575 24.1932 21.3575 24.469V26.4405C21.1897 26.3214 21.0145 26.2023 20.8342 26.08C19.9741 25.496 18.9035 24.7688 18.9035 24.1002V23.3834C18.9035 22.8025 18.9066 22.2812 18.9118 21.8142C18.9515 21.8518 18.9932 21.8894 19.0349 21.9249C19.1183 21.996 19.2048 22.0639 19.2944 22.1287C19.3845 22.1933 19.4777 22.2532 19.5738 22.3084C19.6687 22.3637 19.7677 22.4149 19.8689 22.4619C20.3371 22.6789 20.8469 22.7909 21.3627 22.79H21.37C21.37 23.07 21.3669 23.3531 21.3638 23.6342ZM28.7603 20.7036C28.779 20.5918 28.7999 20.4831 28.8239 20.3765C28.9542 19.7915 29.171 19.29 29.5265 18.9295C29.7912 18.669 30.116 18.478 30.472 18.3737C30.5852 18.6251 30.6458 18.8972 30.6501 19.173C30.6544 19.4488 30.6023 19.7225 30.4971 19.9774C30.472 20.037 30.4449 20.0955 30.4147 20.1519C30.4001 20.1801 30.3845 20.2073 30.3678 20.2355C30.3355 20.2898 30.3 20.3431 30.2625 20.3943C30.2064 20.4715 30.1447 20.5445 30.078 20.6127C29.7134 20.9888 29.2165 21.207 28.6935 21.2207H28.6925C28.7102 21.0431 28.7321 20.8707 28.7603 20.7036ZM31.0965 24.1002C31.0965 24.7688 30.0258 25.496 29.1658 26.08C28.9854 26.2023 28.8103 26.3214 28.6425 26.4405V24.469C28.6425 24.1932 28.6393 23.9142 28.6362 23.6342C28.6331 23.3531 28.63 23.07 28.63 22.79H28.6372C29.153 22.7904 29.6628 22.6784 30.1311 22.4619C30.2323 22.4149 30.3313 22.3637 30.4262 22.3084C30.5221 22.2519 30.6159 22.1924 30.7056 22.1287C30.7504 22.0963 30.7952 22.0628 30.839 22.0294C30.9255 21.9604 31.0089 21.8894 31.0881 21.8142C31.0934 22.2822 31.0965 22.8025 31.0965 23.3834V24.1002ZM32.2703 9.09699C32.1624 8.94005 32.12 8.74706 32.1521 8.5592C32.1842 8.37134 32.2882 8.20348 32.442 8.09143C32.5959 7.97938 32.7873 7.93201 32.9755 7.95942C33.1637 7.98684 33.3338 8.08687 33.4494 8.23818C33.5483 8.36532 33.6019 8.52202 33.6016 8.68326C33.6016 8.83938 33.5518 8.99141 33.4594 9.1171C33.367 9.24279 33.2369 9.33555 33.0881 9.38179C32.9393 9.42803 32.7797 9.42533 32.6325 9.37408C32.4854 9.32284 32.3584 9.22574 32.2703 9.09699ZM40.3507 3.872C40.3507 3.72735 40.3935 3.58595 40.4737 3.46568C40.5539 3.34541 40.6678 3.25167 40.8012 3.19632C40.9345 3.14096 41.0812 3.12648 41.2228 3.1547C41.3643 3.18292 41.4944 3.25257 41.5964 3.35486C41.6985 3.45714 41.768 3.58745 41.7962 3.72932C41.8243 3.87119 41.8099 4.01824 41.7546 4.15188C41.6994 4.28551 41.6059 4.39974 41.4859 4.4801C41.3658 4.56046 41.2248 4.60335 41.0804 4.60335C40.887 4.60314 40.7015 4.52602 40.5647 4.38891C40.4278 4.2518 40.3509 4.0659 40.3507 3.872ZM47.8108 2.92542C47.6664 2.92542 47.5253 2.88253 47.4053 2.80217C47.2853 2.7218 47.1918 2.60758 47.1366 2.47395C47.0813 2.34031 47.0669 2.19326 47.095 2.05139C47.1232 1.90952 47.1927 1.77921 47.2948 1.67692C47.3968 1.57464 47.5268 1.50499 47.6684 1.47677C47.8099 1.44855 47.9567 1.46303 48.09 1.51839C48.2234 1.57374 48.3373 1.66748 48.4175 1.78775C48.4977 1.90802 48.5405 2.04942 48.5405 2.19407C48.5403 2.38797 48.4633 2.57387 48.3265 2.71098C48.1897 2.84809 48.0042 2.92521 47.8108 2.92542Z" fill="white"/>
  <path d="M30.9481 14.5409C30.9116 14.7008 30.8824 14.8356 30.8605 14.9432C30.8386 15.0539 30.8177 15.1584 30.799 15.2576C30.7906 15.2984 30.7823 15.3391 30.775 15.3778C30.7323 15.6045 30.6979 15.8009 30.6687 15.9775C27.0773 15.3172 23.3629 15.3266 19.3514 16.0026C19.3222 15.8197 19.2857 15.616 19.2409 15.3778C19.2346 15.3464 19.2284 15.3151 19.2221 15.2827C19.2023 15.1762 19.1794 15.0644 19.1554 14.9442C19.1356 14.8418 19.1064 14.7133 19.0741 14.566C23.2753 13.8535 27.1722 13.8461 30.9481 14.5409Z" fill="white"/>
    </g>
</svg>
